<?xml version="1.0" standalone="no"?><!DOCTYPE svg PUBLIC "-//W3C//DTD SVG 1.1//EN" "http://www.w3.org/Graphics/SVG/1.1/DTD/svg11.dtd"><svg t="1719413960096" class="icon" viewBox="0 0 1024 1024" version="1.1" xmlns="http://www.w3.org/2000/svg" p-id="4859" xmlns:xlink="http://www.w3.org/1999/xlink" width="200" height="200"><path d="M506.88-0.046548m72.407734 72.407734l362.038672 362.038672q72.407734 72.407734 0 144.815469l-362.038672 362.038672q-72.407734 72.407734-144.815468 0l-362.038672-362.038672q-72.407734-72.407734 0-144.815469l362.038672-362.038672q72.407734-72.407734 144.815468 0Z" fill="#AEB9FF" p-id="4860"></path><path d="M699.9552 334.6944l248.6784 234.1376-314.4192 318.464-122.3168-122.0096 0.1024-116.736z" fill="#7787E8" p-id="4861"></path><path d="M454.7584 752.128a16.4864 16.4864 0 0 1-12.8-6.144c-44.288-53.3504-115.9168-53.8624-117.4528-53.8624h-0.1024c-9.3696 0-16.9984-8.192-17.1008-18.2272 0-4.864 1.7408-9.5232 4.9152-12.9536a16.4352 16.4352 0 0 1 11.9808-5.4784c3.4816-0.256 88.1664-0.0512 143.2064 66.1504a19.2 19.2 0 0 1-1.3824 25.8048 16.128 16.128 0 0 1-11.264 4.6592z m114.2784-0.1024a17.0496 17.0496 0 0 1-15.616-10.9568 19.3536 19.3536 0 0 1 3.072-19.8144c56.9856-66.048 139.8784-65.9456 143.2064-65.792a16.384 16.384 0 0 1 11.9808 5.4784 18.944 18.944 0 0 1 4.864 13.0048c-0.1024 10.0352-7.68 18.1248-17.0496 18.1248h-0.1536c-1.3824 0-71.5776 0.4608-117.8624 54.1184a16.384 16.384 0 0 1-12.4416 5.8368z m-40.1408-93.1328v90.7776c0 10.1376-7.68 18.3296-17.0496 18.3296-9.3696 0-16.9984-8.192-16.9984-18.2784v-90.8288H484.864a16.0256 16.0256 0 0 1-4.9664-0.768c-57.6-7.936-106.6496-43.8784-138.1888-101.4784-36.608-66.9696-45.056-153.7024-20.8896-215.808a17.2032 17.2032 0 0 1 15.4112-11.264l5.12-0.1536c32.512 0 62.7712 6.656 90.4192 19.6608 19.968-39.168 42.6496-68.864 67.7888-88.576a16.5376 16.5376 0 0 1 23.04 0.3584c25.1904 19.8144 47.3088 49.152 67.4304 89.088a209.8176 209.8176 0 0 1 92.4672-20.5824l5.1712 0.0512c6.7584 0.2048 12.8 4.608 15.36 11.264 24.2176 62.1568 15.8208 148.9408-20.8896 215.808-31.5904 57.6-80.5376 93.5936-138.1888 101.5808a15.2064 15.2064 0 0 1-5.0176 0.8192h-10.0864z" fill="#FFFFFF" p-id="4862"></path></svg>